# xmcd
#
# Track frame offsets:
#	150
#	8378
#	13870
#	32430
#	37343
#	41915
#	55688
#	58883
#	62243
#	64150
#	65943
#	82295
#	102128
#	109753
#
# Disc length: 1565 seconds
#
# Revision: 1
# Processed by: cddbd v1.5.1PL0 Copyright (c) Steve Scherf et al.
# Submitted via: CDex 1.50Beta5
#
DISCID=c9061b0e
DTITLE=清水ミチコ - MISS VOICES〜恋するボイス、清水ミチコのモノマネ・パレード
DYEAR=1990
DGENRE=Pop
TTITLE0=オクラホマミキサー
TTITLE1=みどりの部屋
TTITLE2=放送特別モノマネ講座入門編
TTITLE3=本物は誰だ
TTITLE4=輪になって洗おう
TTITLE5=何か御用
TTITLE6=似た声どうし
TTITLE7=ダバダ
TTITLE8=ダーティー・ダバダ
TTITLE9=ひとくち相撲
TTITLE10=放送特別モノマネ講座入門編その2
TTITLE11=クイズ・ミス・ボイセス
TTITLE12=笑点のテーマ
TTITLE13=実用留守番電話
EXTD=
EXTT0=
EXTT1=
EXTT2=
EXTT3=
EXTT4=
EXTT5=
EXTT6=
EXTT7=
EXTT8=
EXTT9=
EXTT10=
EXTT11=
EXTT12=
EXTT13=
PLAYORDER=
